---
---
<svg xmlns="http://www.w3.org/2000/svg" viewBox="0 0 980 480" version="1.1">
<defs>
<style>.cls-1{fill:{{ site.data.theme.theme_color-default.font_color }};}</style>
</defs>

<path d="M 412.071 37.752 C 396.093 45.899, 401.143 69.008, 418.898 68.996 C 427.710 68.990, 433.982 63.856, 435.594 55.328 C 437.972 42.748, 423.491 31.928, 412.071 37.752 M 491 46.128 C 486.049 47.575, 463.175 50.921, 457.750 50.990 C 457.337 50.996, 457 52.350, 457 54 L 457 57 464.500 57 L 472 57 472 136.481 L 472 215.962 469.750 216.464 C 468.512 216.741, 465.700 217.087, 463.500 217.233 L 459.500 217.500 459.184 220.250 L 458.867 223 487.500 223 L 516.133 223 515.816 220.250 L 515.500 217.500 511.500 217.233 C 509.300 217.087, 506.488 216.741, 505.250 216.464 L 503 215.962 503 131.181 C 503 33.042, 504.298 42.239, 491 46.128 M 49 49.488 L 49 53 54.853 53 C 58.073 53, 63.473 53.289, 66.853 53.642 L 73 54.285 73 142.459 C 73 233.489, 72.800 238.552, 68.896 246.204 C 65.712 252.445, 58.720 255.398, 52.647 253.066 L 49.793 251.971 53.343 248.042 C 65.773 234.284, 53.954 214.165, 36.243 218.935 C 16.317 224.300, 19.167 251.807, 40.391 258.975 C 68.942 268.616, 95.890 251.139, 103.568 218 L 105.306 210.500 105.728 132.322 L 106.149 54.143 112.325 53.572 C 115.721 53.258, 119.850 52.888, 121.500 52.751 L 124.500 52.500 124.500 49.500 L 124.500 46.500 86.750 46.238 L 49 45.976 49 49.488 M 321.634 96.586 C 303.463 100.985, 288.893 115.775, 281.331 137.500 L 278.546 145.500 278.523 163 C 278.498 182.224, 279.519 188.034, 284.985 199.759 C 301.288 234.729, 358.371 236.576, 376.467 202.719 L 378.434 199.038 376.467 197.551 C 373.720 195.474, 373.925 195.350, 369.097 201.979 C 346.860 232.516, 315.747 219.689, 310.934 178 C 304.423 121.591, 332.240 81.500, 358.368 109.636 L 361.027 112.500 357.073 113.188 C 337.962 116.512, 340.586 143.992, 360.016 143.998 C 377.469 144.004, 381.492 122.006, 366.762 107.109 C 356.074 96.300, 339.135 92.350, 321.634 96.586 M 570.112 96.581 C 552.248 101.385, 539.071 115.856, 532.810 137.545 L 530.514 145.500 530.591 162 C 530.705 186.247, 534.827 199.219, 546.389 211.707 C 568.620 235.719, 615.998 230.532, 631.032 202.439 L 632.446 199.799 630.532 198.399 C 627.629 196.277, 626.795 196.679, 623 202.022 C 615.962 211.933, 604.958 217.904, 593.616 217.967 C 573.548 218.079, 564.259 203.885, 562.389 170.250 L 561.708 158 594.699 158 L 627.690 158 629.492 156.008 L 631.295 154.017 630.701 144.758 C 628.337 107.865, 603.017 87.731, 570.112 96.581 M 718.618 96.056 C 711.731 97.772, 703.251 103.068, 697.052 109.525 L 691.002 115.825 691.546 107.663 C 691.951 101.600, 691.741 99.065, 690.728 97.809 L 689.365 96.117 680.118 98.470 C 675.032 99.764, 665.275 101.373, 658.436 102.046 L 646 103.268 646 106.134 L 646 109 653.500 109 L 661 109 661 162.481 L 661 215.962 658.750 216.464 C 657.513 216.741, 654.700 217.087, 652.500 217.233 L 648.500 217.500 648.184 220.250 L 647.867 223 676.500 223 L 705.133 223 704.816 220.250 L 704.500 217.500 700.500 217.233 C 698.300 217.087, 695.487 216.741, 694.250 216.464 L 692 215.962 692 176.030 C 692 134.064, 692.407 129.126, 696.534 121 C 704.865 104.599, 723.802 101.671, 730.318 115.777 L 732.500 120.500 732.788 167.918 C 733.107 220.691, 733.643 216.959, 725.750 216.985 L 721 217 721 220 L 721 223 749.066 223 L 777.133 223 776.816 220.250 L 776.500 217.500 772.500 217.233 C 770.300 217.087, 767.487 216.741, 766.250 216.464 L 764 215.962 764 171.191 C 764 118.017, 763.309 113.463, 753.795 103.949 C 746.532 96.686, 730.513 93.092, 718.618 96.056 M 830.112 96.581 C 812.248 101.385, 799.071 115.856, 792.810 137.545 L 790.514 145.500 790.591 162 C 790.705 186.247, 794.827 199.219, 806.389 211.707 C 828.620 235.719, 875.998 230.532, 891.032 202.439 L 892.446 199.799 890.532 198.399 C 887.629 196.277, 886.795 196.679, 883 202.022 C 875.962 211.933, 864.958 217.904, 853.616 217.967 C 833.548 218.079, 824.259 203.885, 822.389 170.250 L 821.708 158 854.699 158 L 887.690 158 889.492 156.008 L 891.295 154.017 890.701 144.758 C 888.337 107.865, 863.017 87.731, 830.112 96.581 M 169 98.168 C 165.425 99.236, 155.975 100.872, 148 101.805 L 133.500 103.500 133.184 106.250 L 132.867 109 140.934 109 L 149 109 149.012 152.250 C 149.025 198.663, 149.198 200.578, 154.300 210.620 C 157.369 216.660, 161.462 220.360, 169 223.910 L 174.500 226.500 184.500 226.500 L 194.500 226.500 200 223.860 C 205.688 221.130, 212.330 215.377, 217.626 208.591 L 220.677 204.681 221.876 211.091 C 222.536 214.616, 223.319 218.738, 223.617 220.250 L 224.159 223 244.146 223 L 264.133 223 263.816 220.250 L 263.500 217.500 259.500 217.233 C 257.300 217.087, 254.488 216.741, 253.250 216.464 L 251 215.962 251 157.672 C 251 112.609, 250.716 98.998, 249.750 97.690 L 248.500 95.998 239.500 98.396 C 234.550 99.715, 224.762 101.368, 217.750 102.069 L 205 103.344 205 106.172 L 205 109 212.500 109 L 220 109 220 145.864 C 220 196.909, 215.638 211.538, 199.518 214.563 C 182.034 217.843, 180.009 210.954, 179.968 148.068 C 179.943 109.267, 179.669 99.148, 178.608 97.750 C 177.047 95.694, 177.323 95.682, 169 98.168 M 423.021 98.472 C 418.357 99.750, 408.795 101.365, 401.771 102.061 L 389 103.325 389 106.163 L 389 109 396.500 109 L 404 109 404 162.481 L 404 215.962 401.750 216.464 C 400.512 216.741, 397.700 217.087, 395.500 217.233 L 391.500 217.500 391.184 220.250 L 390.867 223 419.500 223 L 448.133 223 447.816 220.250 L 447.500 217.500 443.500 217.233 C 441.300 217.087, 438.488 216.741, 437.250 216.464 L 435 215.962 435 157.915 C 435 102.757, 434.687 95.817, 432.215 96.074 C 431.822 96.115, 427.684 97.194, 423.021 98.472 M 577.223 103.065 C 569.534 106.967, 565.080 118.523, 563.123 139.643 C 561.904 152.802, 559.423 151.369, 581.927 150.503 L 600.952 149.771 601.614 146.243 C 606.566 119.848, 592.659 95.229, 577.223 103.065 M 837.223 103.065 C 829.534 106.967, 825.080 118.523, 823.123 139.643 C 821.904 152.802, 819.423 151.369, 841.927 150.503 L 860.952 149.771 861.614 146.243 C 866.566 119.848, 852.659 95.229, 837.223 103.065 M 141.791 238.455 C 108.728 245.375, 91.397 279.976, 105.531 310.848 C 112.059 325.107, 120.147 331.737, 146.595 344.509 C 188.570 364.779, 200.184 377.790, 192.129 395.521 C 183.433 414.666, 139.004 421.814, 120.079 407.114 L 117.659 405.234 121.079 404.526 C 139.548 400.701, 139.955 373.849, 121.619 368.893 C 92.627 361.058, 89.703 403.055, 118.340 415.989 C 167.233 438.072, 220.194 409.241, 213.989 363.921 C 210.739 340.186, 201.692 331.461, 158.748 310.646 C 128.114 295.798, 121 288.873, 121 273.898 C 121 260.127, 127.797 250.897, 140.833 246.966 L 148.166 244.755 159.333 245.236 C 171.907 245.778, 179.194 247.965, 185.021 252.946 L 188.500 255.919 185.710 255.959 C 170.072 256.187, 163.938 279.975, 177.247 288.782 C 191.470 298.194, 208.319 287.487, 206.737 270.042 C 204.625 246.742, 173.808 231.754, 141.791 238.455 M 524 263.035 C 520.425 264.076, 514.688 265.231, 511.250 265.602 L 505 266.276 505 280.138 L 505 294 494.500 294 L 484 294 484 297 L 484 300 489.860 300 C 493.084 300, 497.781 300.282, 500.298 300.627 L 504.875 301.255 505.260 347.377 C 505.575 385.035, 505.925 394.418, 507.170 398.500 C 512.358 415.510, 520.647 421.500, 539 421.500 L 549.500 421.500 555.218 418.820 C 568.485 412.602, 582.018 395.294, 576.317 391.835 L 573.634 390.207 568.823 397.058 C 560.893 408.350, 551.649 411.930, 543.898 406.713 C 536.577 401.785, 536.013 397.329, 536.006 344.392 L 536 301.285 542.147 300.642 C 545.527 300.289, 551.602 300, 555.647 300 L 563 300 563 297 L 563 294 549.500 294 L 536 294 536 278.700 C 536 259.279, 536.164 259.493, 524 263.035 M 265.112 291.581 C 233.517 300.078, 221.326 341.018, 250.398 340.996 C 270.035 340.982, 272.515 312.946, 253.128 310.126 L 248.500 309.453 253.264 304.802 C 259.528 298.687, 265.506 296.675, 276 297.152 C 291.905 297.874, 295.948 305.655, 295.983 335.610 L 296 350.720 282.250 351.297 C 246.619 352.791, 226.512 370.200, 230.077 396.469 C 234.103 426.139, 275.928 431.623, 293.163 404.741 L 296.500 399.537 297.822 407.519 C 298.550 411.908, 299.323 416.063, 299.541 416.750 C 299.841 417.695, 304.835 418, 320.035 418 L 340.133 418 339.816 415.250 L 339.500 412.500 335.500 412.233 C 333.300 412.087, 330.517 411.748, 329.316 411.481 L 327.132 410.995 326.740 367.248 C 326.280 315.981, 325.644 312.079, 316.053 301.674 C 307.072 291.930, 282.164 286.995, 265.112 291.581 M 419.597 291.936 C 411.944 294.454, 403.681 300.197, 398.766 306.416 L 394.852 311.367 395.124 302.667 C 395.331 296.064, 395.042 293.614, 393.925 292.497 L 392.454 291.026 384.977 293.155 C 380.865 294.326, 371.200 296.008, 363.500 296.892 L 349.500 298.500 349.184 301.250 L 348.867 304 356.442 304 L 364.017 304 363.759 357.750 L 363.500 411.500 357.750 411.800 L 352 412.100 352 415.050 L 352 418 380 418 L 408 418 408 415.050 L 408 412.100 402.250 411.800 L 396.500 411.500 396.234 370 L 395.968 328.500 397.959 321.926 C 402.649 306.444, 416.069 298.045, 427.349 303.533 C 436.345 307.910, 437 312.163, 437 366.191 L 437 410.962 434.750 411.464 C 433.512 411.741, 430.700 412.087, 428.500 412.233 L 424.500 412.500 424.184 415.250 L 423.867 418 452.500 418 L 481.133 418 480.816 415.250 L 480.500 412.500 476.500 412.233 C 474.300 412.087, 471.488 411.741, 470.250 411.464 L 468 410.962 468 367.030 C 468 320.726, 467.677 316.571, 463.355 307.339 C 456.640 292.994, 437.191 286.148, 419.597 291.936 M 619.348 291.356 C 587.597 299.453, 574.354 340.975, 603.516 340.996 C 623.287 341.011, 626.182 312.691, 606.679 310.050 L 602.617 309.500 606.051 305.592 C 611.289 299.630, 617.830 297.018, 627.500 297.026 C 645.651 297.041, 649.868 305.596, 649.976 342.622 L 650 350.744 636.250 351.288 C 609.835 352.335, 594.619 359.873, 586.781 375.794 L 583.500 382.458 583.520 390.979 C 583.601 425.143, 627.827 434.336, 647.076 404.190 C 650.208 399.285, 650.165 399.229, 652.016 410.750 L 653.181 418 673.090 418 L 693 418 693 415 L 693 412 688.250 411.985 C 680.769 411.961, 681.259 414.800, 680.751 368.500 L 680.290 326.500 678.144 318.586 C 671.999 295.924, 646.942 284.319, 619.348 291.356 M 775.618 291.056 C 768.731 292.772, 760.251 298.068, 754.052 304.525 L 748.002 310.825 748.546 302.663 C 748.951 296.600, 748.741 294.065, 747.728 292.809 L 746.365 291.117 737.118 293.470 C 732.032 294.764, 722.275 296.373, 715.436 297.046 L 703 298.268 703 301.134 L 703 304 710.500 304 L 718 304 718 357.481 L 718 410.962 715.750 411.464 C 714.513 411.741, 711.700 412.087, 709.500 412.233 L 705.500 412.500 705.184 415.250 L 704.867 418 733.500 418 L 762.133 418 761.816 415.250 L 761.500 412.500 757.500 412.233 C 755.300 412.087, 752.487 411.741, 751.250 411.464 L 749 410.962 749 371.030 C 749 329.064, 749.407 324.126, 753.534 316 C 761.865 299.599, 780.802 296.671, 787.318 310.777 L 789.500 315.500 789.788 362.918 C 790.107 415.691, 790.643 411.959, 782.750 411.985 L 778 412 778 415 L 778 418 806.066 418 L 834.133 418 833.816 415.250 L 833.500 412.500 829.500 412.233 C 827.300 412.087, 824.487 411.741, 823.250 411.464 L 821 410.962 821 366.191 C 821 313.017, 820.309 308.463, 810.795 298.949 C 803.532 291.686, 787.513 288.092, 775.618 291.056 M 880.500 291.832 C 849.383 301.196, 838.049 341, 866.500 341 C 885.538 341, 888.902 312.808, 870.163 310.295 C 865.152 309.623, 865.097 309.308, 869.250 305.038 C 880.893 293.068, 902.435 294.041, 908.711 306.820 L 911.500 312.500 911.854 331.616 L 912.207 350.732 898.854 351.268 C 850.179 353.219, 824.267 400.270, 861.733 418.668 L 867.500 421.500 877.500 421.500 L 887.500 421.500 893.046 418.899 C 899.877 415.695, 905.195 411.117, 909.484 404.748 L 912.756 399.888 913.415 403.694 C 913.777 405.787, 914.539 409.863, 915.108 412.750 L 916.142 418 936.137 418 L 956.133 418 955.816 415.250 L 955.500 412.500 951.500 412.233 C 949.300 412.087, 946.487 411.741, 945.250 411.464 L 943 410.962 942.983 369.731 C 942.957 308.728, 940.115 300.273, 917.152 292.877 C 907.737 289.845, 888.889 289.307, 880.500 291.832 M 280.718 358.092 C 256.760 363.733, 251.412 410, 274.718 410 C 286.891 410, 295.069 395.398, 295.779 372.395 L 296.215 358.289 293.857 357.658 C 290.725 356.820, 285.368 356.997, 280.718 358.092 M 634.153 358.074 C 611.443 362.540, 605.020 410, 627.126 410 C 641.202 410, 649.963 392.901, 649.992 365.375 L 650 358.250 646.875 357.625 C 643.018 356.854, 639.778 356.968, 634.153 358.074 M 897.326 358.044 C 884.111 360.657, 876.715 371.782, 876.789 388.933 C 876.904 415.170, 897.279 418.061, 908.682 393.458 L 911.443 387.500 911.827 372.894 L 912.211 358.288 909.855 357.658 C 906.876 356.860, 902.656 356.991, 897.326 358.044"/>
</svg>